<svg width="14" height="14" viewBox="0 0 14 14" fill="none" xmlns="http://www.w3.org/2000/svg">
<rect x="0.642049" y="0.425046" width="12.7677" height="12.7677" stroke="white" stroke-width="0.41186"/>
<g clip-path="url(#clip0_1_159)">
<path d="M6.97529 5.14366C6.04963 5.14366 5.30298 5.88645 5.30298 6.80735C5.30298 7.72824 6.04963 8.47103 6.97529 8.47103C7.90095 8.47103 8.64759 7.72824 8.64759 6.80735C8.64759 5.88645 7.90095 5.14366 6.97529 5.14366ZM6.97529 7.88896C6.3771 7.88896 5.88807 7.4039 5.88807 6.80735C5.88807 6.21079 6.37564 5.72573 6.97529 5.72573C7.57493 5.72573 8.0625 6.21079 8.0625 6.80735C8.0625 7.4039 7.57347 7.88896 6.97529 7.88896V7.88896ZM9.10606 5.07561C9.10606 5.29135 8.9314 5.46365 8.716 5.46365C8.49914 5.46365 8.32594 5.2899 8.32594 5.07561C8.32594 4.86131 8.50059 4.68756 8.716 4.68756C8.9314 4.68756 9.10606 4.86131 9.10606 5.07561ZM10.2136 5.46945C10.1889 4.94963 10.0696 4.48919 9.68678 4.10983C9.30545 3.73047 8.84262 3.61173 8.32012 3.58567C7.7816 3.55526 6.16752 3.55526 5.629 3.58567C5.10795 3.61029 4.64512 3.72902 4.26234 4.10838C3.87956 4.48774 3.76167 4.94819 3.73547 5.468C3.70491 6.00374 3.70491 7.60951 3.73547 8.14525C3.76021 8.66506 3.87956 9.1255 4.26234 9.50486C4.64512 9.88423 5.1065 10.003 5.629 10.029C6.16752 10.0594 7.7816 10.0594 8.32012 10.029C8.84262 10.0044 9.30545 9.88567 9.68678 9.50486C10.0681 9.1255 10.1875 8.66506 10.2136 8.14525C10.2442 7.60951 10.2442 6.00519 10.2136 5.46945V5.46945ZM9.51795 8.72008C9.40442 9.00388 9.18465 9.22252 8.89793 9.3369C8.46857 9.50631 7.44976 9.46722 6.97529 9.46722C6.50081 9.46722 5.48055 9.50486 5.05265 9.3369C4.76738 9.22396 4.54761 9.00532 4.43263 8.72008C4.26234 8.29294 4.30164 7.27938 4.30164 6.80735C4.30164 6.33532 4.2638 5.32031 4.43263 4.89461C4.54615 4.61082 4.76592 4.39218 5.05265 4.27779C5.482 4.10838 6.50081 4.14747 6.97529 4.14747C7.44976 4.14747 8.47003 4.10983 8.89793 4.27779C9.1832 4.39073 9.40297 4.60937 9.51795 4.89461C9.68823 5.32176 9.64894 6.33532 9.64894 6.80735C9.64894 7.27938 9.68823 8.29438 9.51795 8.72008Z" fill="white"/>
</g>
<defs>
<clipPath id="clip0_1_159">
<rect width="6.58976" height="7.41348" fill="white" transform="translate(3.73105 3.10181)"/>
</clipPath>
</defs>
</svg>
