<svg width="15" height="14" viewBox="0 0 15 14" fill="none" xmlns="http://www.w3.org/2000/svg">
<rect x="1.10353" y="0.425046" width="12.7677" height="12.7677" stroke="white" stroke-width="0.41186"/>
<g clip-path="url(#clip0_1_149)">
<path d="M11.1032 4.62818C10.8285 4.74535 10.5371 4.82225 10.2388 4.85634C10.5495 4.67702 10.7881 4.39305 10.9005 4.0547C10.6051 4.22348 10.2819 4.3424 9.94485 4.40632C9.67031 4.12472 9.27921 3.94873 8.84634 3.94873C8.0152 3.94873 7.34134 4.59751 7.34134 5.39769C7.34134 5.51127 7.35466 5.62185 7.38031 5.72792C6.12956 5.66748 5.02065 5.09063 4.27836 4.21397C4.14885 4.42797 4.07463 4.67691 4.07463 4.94242C4.07463 5.44514 4.34034 5.88863 4.74413 6.14849C4.50515 6.14128 4.27141 6.07913 4.06245 5.96723C4.06237 5.9733 4.06237 5.97937 4.06237 5.98546C4.06237 6.68751 4.58112 7.27317 5.26956 7.40628C5.04795 7.46431 4.81549 7.4728 4.58995 7.43111C4.78144 8.00678 5.33725 8.42568 5.99577 8.43741C5.48072 8.82602 4.83179 9.05769 4.12673 9.05769C4.00523 9.05769 3.88546 9.05082 3.76772 9.03743C4.43373 9.44856 5.22478 9.68844 6.07466 9.68844C8.84284 9.68844 10.3565 7.4805 10.3565 5.56573C10.3565 5.50288 10.3551 5.4404 10.3522 5.37827C10.6468 5.17319 10.9011 4.91919 11.1032 4.62818" fill="white"/>
</g>
<defs>
<clipPath id="clip0_1_149">
<rect width="7.41348" height="5.76604" fill="white" transform="translate(3.78068 3.9259)"/>
</clipPath>
</defs>
</svg>
